<svg id="Layer_5" enable-background="new 0 0 64 64" height="512" viewBox="0 0 64 64" width="512" xmlns="http://www.w3.org/2000/svg"><g><path d="m50 43c-3.86 0-7 3.14-7 7s3.14 7 7 7 7-3.14 7-7-3.14-7-7-7zm0 12c-2.757 0-5-2.243-5-5s2.243-5 5-5 5 2.243 5 5-2.243 5-5 5z"/><path d="m50 47c-1.654 0-3 1.346-3 3s1.346 3 3 3 3-1.346 3-3-1.346-3-3-3zm0 4c-.551 0-1-.449-1-1s.449-1 1-1 1 .449 1 1-.449 1-1 1z"/><path d="m60.884 46.581c-.302-.099-.538-.316-.646-.594-.051-.132-.104-.263-.161-.393-.118-.273-.104-.591.038-.873.601-1.188.372-2.62-.57-3.561l-.704-.704c-.942-.942-2.372-1.171-3.561-.57-.281.143-.599.156-.874.038-.128-.056-.259-.109-.39-.161-.279-.108-.497-.345-.596-.648-.363-1.103-1.302-1.889-2.419-2.073v-8.042h5c3.86 0 7-3.14 7-7s-3.14-7-7-7c-.595 0-1.179.074-1.747.221-1.52-3.71-5.188-6.221-9.254-6.221-.443 0-.88.034-1.312.091-2.294-4.939-7.185-8.091-12.688-8.091-6.253 0-11.657 4.076-13.409 10.009-4.774.215-8.591 4.166-8.591 8.991 0 1.053.191 2.06.525 3h-5.525c-1.654 0-3 1.346-3 3v34c0 1.654 1.346 3 3 3h45.502.498.498c1.331 0 2.505-.85 2.921-2.116.099-.302.316-.538.594-.646.132-.051.263-.104.393-.161.272-.119.591-.105.873.038 1.189.6 2.619.372 3.561-.57l.705-.704c.942-.941 1.171-2.373.57-3.561-.143-.282-.156-.6-.038-.874.056-.129.11-.26.161-.39.108-.28.345-.497.648-.596 1.264-.417 2.114-1.591 2.114-2.922v-.996c0-1.331-.85-2.505-2.116-2.921zm-42.884-33.581c.054 0 .106.004.159.008l.982.046.19-.807c1.28-5.445 6.079-9.247 11.669-9.247 4.581 0 8.669 2.548 10.702 6.573-2.005.701-3.768 2.021-4.993 3.834l1.657 1.12c1.492-2.208 3.972-3.527 6.634-3.527 3.533 0 6.69 2.37 7.676 5.764l.316 1.085 1.039-.445c.625-.268 1.288-.404 1.969-.404 2.757 0 5 2.243 5 5s-2.243 5-5 5h-9.051c-.503-5.046-4.773-9-9.949-9s-9.446 3.954-9.949 9h-9.051c-3.86 0-7-3.14-7-7s3.14-7 7-7zm27 15c0 4.411-3.589 8-8 8s-8-3.589-8-8 3.589-8 8-8 8 3.589 8 8zm-41-3h6.522c1.617 2.41 4.365 4 7.478 4h9.051c.069.69.208 1.359.41 2h-24.461v-5c0-.551.449-1 1-1zm-1 35v-27h25.353c.423.729.931 1.402 1.518 2h-4.871v2h2v8h-2v2h6v-2h-2v-8h2v-1.019c1.674 1.261 3.747 2.019 6 2.019 5.177 0 9.446-3.954 9.949-9h2.051v8.042c-1.117.184-2.056.97-2.419 2.074-.099.302-.316.538-.596.646-.131.051-.261.104-.391.161-.273.118-.591.105-.873-.038-1.188-.601-2.619-.372-3.561.57l-.704.704c-.942.941-1.171 2.373-.57 3.561.143.282.156.6.038.874-.056.129-.11.26-.161.39-.108.28-.345.497-.648.596-1.265.417-2.115 1.591-2.115 2.922v.996c0 1.331.85 2.505 2.116 2.921.302.099.538.316.646.594.051.132.104.263.161.393.118.273.104.591-.038.873-.601 1.188-.372 2.62.57 3.561l.704.705c.942.942 2.373 1.17 3.561.57.281-.143.599-.157.874-.038.129.056.26.11.39.161.28.108.497.345.596.648.013.04.033.075.048.114h-42.628c-.551 0-1-.449-1-1zm58-9.502c0 .465-.297.875-.74 1.021-.872.286-1.56.932-1.886 1.772-.042.107-.086.214-.131.318-.356.82-.325 1.757.087 2.572.21.415.13.915-.199 1.244l-.705.705c-.329.33-.829.409-1.244.199-.814-.412-1.753-.442-2.571-.087-.105.045-.212.089-.321.132-.839.326-1.484 1.014-1.771 1.887-.145.442-.556.739-1.021.739h-.498-.498c-.465 0-.875-.297-1.021-.74-.286-.872-.932-1.56-1.772-1.886-.107-.042-.214-.086-.318-.131-.378-.165-.781-.247-1.186-.247-.473 0-.947.112-1.386.333-.416.21-.916.13-1.244-.199l-.705-.705c-.329-.329-.409-.829-.199-1.244.412-.815.443-1.752.087-2.571-.045-.105-.089-.212-.132-.321-.326-.839-1.014-1.484-1.887-1.771-.442-.144-.739-.555-.739-1.02v-.996c0-.465.297-.875.739-1.021.873-.286 1.561-.932 1.887-1.772.042-.107.086-.214.131-.318.356-.82.325-1.757-.087-2.572-.21-.415-.13-.916.199-1.245l.704-.704c.329-.33.829-.41 1.245-.199.815.412 1.753.443 2.571.087.106-.046.213-.09.32-.131.839-.327 1.485-1.015 1.772-1.887.145-.443.556-.74 1.021-.74h.996c.465 0 .875.297 1.021.74.287.872.932 1.56 1.771 1.886.107.042.214.086.319.131.819.356 1.757.324 2.572-.087.415-.211.915-.13 1.245.199l.704.704c.329.329.409.83.199 1.245-.412.815-.443 1.752-.087 2.571.045.105.089.212.132.321.326.839 1.014 1.484 1.887 1.771.442.145.739.556.739 1.021z"/><path d="m34.447 23.105c-.31-.155-.677-.138-.973.044-.294.183-.474.504-.474.851v8c0 .347.18.668.474.851.161.099.343.149.526.149.153 0 .306-.035.447-.105l8-4c.339-.17.553-.516.553-.895s-.214-.725-.553-.895zm.553 7.277v-4.764l4.764 2.382z"/><path d="m9 27h2v2h-2z"/><path d="m5 27h2v2h-2z"/><path d="m7 43h4v4h2v-8c0-2.206-1.794-4-4-4s-4 1.794-4 4v8h2zm2-6c1.103 0 2 .897 2 2v2h-4v-2c0-1.103.897-2 2-2z"/><path d="m17 43h2c2.206 0 4-1.794 4-4s-1.794-4-4-4h-4v12h2zm0-6h2c1.103 0 2 .897 2 2s-.897 2-2 2h-2z"/><path d="m5 59h10v-10h-10zm2-8h6v6h-6z"/><path d="m17 49h2v2h-2z"/><path d="m21 49h14v2h-14z"/><path d="m17 53h18v2h-18z"/><path d="m17 57h12v2h-12z"/><path d="m31 57h4v2h-4z"/><path d="m25.037 9.667-1.49-1.333c-.564.63-1.047 1.331-1.435 2.081l1.776.919c.31-.602.697-1.162 1.149-1.667z"/><path d="m31 7c2.272 0 4.446.972 5.963 2.667l1.49-1.334c-1.896-2.118-4.613-3.333-7.453-3.333-1.989 0-3.911.583-5.557 1.685l1.112 1.662c1.317-.881 2.853-1.347 4.445-1.347z"/><path d="m18 25h2v-2h-2c-1.654 0-3-1.346-3-3h-2c0 2.757 2.243 5 5 5z"/><path d="m22 23h2v2h-2z"/></g></svg>