<svg xmlns="http://www.w3.org/2000/svg" width="46" height="65" viewBox="0 0 46 65"><g><g><g><g><g><path fill="#4353ad" d="M22.972 65L4.186 59.78 0 12.773h46l-4.19 46.998z"/></g></g><g><g><path fill="#485fb5" d="M38.222 56.78l3.58-40.162H23v44.386l15.222-4.224"/></g></g><g><g><path fill="#ededed" d="M23 55.022l-.026.007-11.797-3.278-.807-9.052h5.781l.41 4.597 6.414 1.734.025-.007zm0-32.64v5.766H9.083l-.523-5.765zm0 11.669v5.765H10.113l-.516-5.765z"/></g></g><g><g><path fill="#100f0d" d="M34.54 0v2.539h-4.058v.508h4.058v5.84h-6.975V6.22h4.059v-.507h-4.058V0zm-8.37 0v2.539h-4.058v.508h4.058v5.84h-6.974V6.22h4.058v-.507h-4.059V0zM10.826 0H17.8v2.92h-4.058v2.92H17.8v2.92h-6.975z"/></g></g><g><g><path fill="#fff" d="M36.366 34.051l1.04-11.668H22.98v5.765h8.115l-.524 5.903h-7.59v5.765h7.09l-.668 7.477-6.423 1.735v5.998l11.806-3.275.086-.974 1.354-15.178z"/></g></g></g></g></g></svg>