<svg xmlns="http://www.w3.org/2000/svg" width="161" height="37" viewBox="0 0 161 37"><g><g><g><g><path fill="#1a1918" d="M154.375 2.71l6.766.037s-12.579 17.045-13.606 18.434c-.334.45-.84.935-1.097 1.537-.65 1.512-1.317 4.828-1.317 4.828l-6.19.03s.963-3.456.923-5.297c-.035-1.609-.856-3.215-1.317-4.828-.465-1.633-1.097-4.828-1.097-4.828h6.364l.878 3.511z"/></g><g><path fill="#1a1918" d="M141.563 6.301c1.248.753 2.015 4.905 2.015 4.905s-6.534.096-10.09.096h-3.072l-3.73 16.24h-5.706s3.55-17.648 4.39-20.848c.271-1.036 1.86-.858 4.544-.858h4.286c2.767 0 6.002-.353 7.363.465z"/></g><g><path fill="#1a1918" d="M106.491 14.156s-.096-3.673 4.861-3.517c1.756.054 2.372.294 3.04 1.323.78 1.207.603 2.25.603 2.25zm13.222-6.127c-1.195-1.668-3.645-2.247-5.267-2.414-4.308-.44-7.894.711-9.875 2.195-.6.447-1.098.807-1.536 1.317-.159.184-.33.39-.476.603-.128.18-.28.303-.402.494-.182.276-.375.799-.603 1.262-.183.37-.356.807-.495 1.152-1.189 2.971-2.402 8.517-1.316 11.411.16.428.518.97.64 1.135.154.206.295.446.457.62.595.642 1.475 1.094 2.414 1.318 4.756 1.135 14.265.658 14.265.658l1.165-5.161s-6.729.303-9.943-.106c-.481-.061-1.82-.13-2.507-.73-.597-.523-1.301-1.758-.785-2.561.366-.573 1.84-.402 3.072-.44 3.961-.12 11.192 0 11.192 0s1.385-6.157.659-8.778c-.18-.645-.338-1.53-.659-1.975z"/></g><g><path fill="#1a1918" d="M94.201 5.813l5.533-.033s-3.084 14.627-4.655 21.76h-6.364c-4.449 0-8.41.55-10.095-2.634-1.635-3.092-.075-8.177.658-11.632.518-2.444 1.609-7.441 1.609-7.441l5.732-.053s-1.62 7.78-2.293 11.664c-.242 1.391-.74 2.702-.22 3.73.494.98 1.185 1.05 3.292 1.098.667.016 2.853 0 2.853 0z"/></g><g><path fill="#1a1918" d="M66.555 22.056c-4.435-.026-8.555.58-9.876-2.195-.746-1.569-.41-3.693 0-5.706.551-2.71 1.078-4.678 2.634-6.364 1.203-1.301 4.229-2.897 7.462-1.755 1.073.38 2.736 2.185 2.852 4.17.108 1.854-.737 4.086-1.316 6.144-.553 1.96-1.098 3.942-1.756 5.706zM75.992 8.23c-.338-2.453-1.938-5.12-3.694-6.237-.072-.044-.386-.294-.476-.347C70.522.894 68.442.26 66.994.11 59.526-.656 55.07 2.662 52.51 7.133c-1.007 1.755-1.675 3.673-2.195 5.706-.575 2.251-.987 4.981-.658 7.461.198 1.486 1.014 3.597 2.195 4.828 2.907 3.03 8.609 2.634 14.703 2.634 1.868 0 6.347-.038 7.698-.073.437-.013 1.69-5.113 1.578-5.278-.107-.127-1.6.05-3.302-.103 1.67-4.41 4.095-9.483 3.463-14.078z"/></g><g><path fill="#1a1918" d="M49.02 5.846c-.368 1.68-.737 3.582-1.125 5.241H41.75c.476-1.839.84-3.667 1.317-5.267 1.966 0 3.794.026 5.954.026z"/></g><g><path fill="#1a1918" d="M41.538 12.62h5.926c-.775 4.288-2.309 11.206-3.511 16.02-.753 3.013-1.256 5.212-3.293 6.803-.182.143-.287.075-.438.22-.376.358-2.112.773-3.073.878-1.562.169-3.329.022-5.249-.018.503-1.837 1.071-4.042 1.519-5.688 4.68.566 4.8-3.858 5.705-8.12.525-2.462 2.114-9.107 2.414-10.095z"/></g><g><g><path fill="#21609b" d="M27.71 23.809l-.127.329c-2.164 4.213-5.998 6.799-11.467 6.913-2.556.052-4.992-.603-6.584-1.317-3.434-1.543-6.322-4.404-7.9-7.461C-.63 17.89-1.038 11.793 3.666 7.24c.073 0-.57.987-.498.987l-.13.422c-3.39 10.615 7.056 19.711 17.21 18.671 2.44-.25 5.553-1.587 7.462-3.511z"/></g><g><path fill="#21609b" d="M21.561 19.426c2.555.018 5.223-1.176 6.803-2.853-1.382 3.51-5.385 5.765-10.753 5.048-4.494-.602-8.776-5.125-9.217-9.657-.323-3.298.827-5.266 2.721-7.654-.658 1.249-.904 2.212-.965 2.826-.72 7.135 5.699 12.253 11.411 12.29z"/></g><g><path fill="#21609b" d="M28.117 10.56c-.398.912-2.684 2.632-3.694 2.847-3.998.852-6.56-1.044-7.9-3.202-.2-.322-.569-1.202-.635-1.426-.52-1.769-.28-4.444 1.271-5.829-.467 1.317-.535 2.846-.29 3.84.15.602.604 1.651 1.058 2.311.827 1.203 1.352 1.495 2.414 2.134.479.287.992.518 1.214.581 1.007.296 3.134 1.078 6.562-1.255z"/></g></g></g></g></g></svg>