<svg xmlns="http://www.w3.org/2000/svg" width="65" height="65" viewBox="0 0 65 65"><g><g><g><g><path fill="#f7df1e" d="M0 0h65v65H0z"/></g><g><path d="M17.09 54.318l4.974-3.01c.96 1.7 1.833 3.14 3.927 3.14 2.007 0 3.273-.785 3.273-3.839V29.84h6.108v20.855c0 6.327-3.709 9.207-9.12 9.207-4.886 0-7.722-2.531-9.162-5.585"/></g><g><path d="M38.69 53.662l4.974-2.88c1.309 2.139 3.01 3.71 6.021 3.71 2.531 0 4.145-1.266 4.145-3.012 0-2.094-1.658-2.836-4.45-4.057l-1.527-.655c-4.407-1.876-7.33-4.232-7.33-9.206 0-4.581 3.49-8.072 8.944-8.072 3.883 0 6.676 1.353 8.683 4.887l-4.756 3.054c-1.048-1.876-2.182-2.618-3.927-2.618-1.789 0-2.923 1.135-2.923 2.618 0 1.833 1.134 2.575 3.752 3.71l1.527.653c5.192 2.226 8.116 4.495 8.116 9.6 0 5.497-4.32 8.508-10.123 8.508-5.672 0-9.337-2.706-11.126-6.24"/></g></g></g></g></svg>