<svg xmlns="http://www.w3.org/2000/svg" width="160" height="45" viewBox="0 0 160 45"><g><g><g><g><path fill="#8e714e" d="M150.184 18.517c2.913 0 4.874 1.053 4.874 3.812 0 1.223-.49 2.332-1.528 2.844-.404.17-1.125.341-2.365.341-.894 0-1.932-.028-2.365-.057-.086 0-.173-.113-.173-.17 0-2.048.029-5.063.058-6.2 0-.171.144-.484.288-.513a4.705 4.705 0 0 1 1.211-.057zm1.961 16.952c-.807 0-1.99-.056-2.509-.34-.49-.228-.894-.996-.951-1.537-.087-1.251-.058-4.465-.058-6.485 0-.085.115-.142.202-.17.288-.057 1.5-.029 1.673-.029 3.806 0 5.911 1.564 5.911 4.38 0 2.93-1.99 4.181-4.268 4.181zM143.09 17.01c-.173.114-.663 1.08-.519 1.223.663.085 1.47.2 1.961.284.635.171.952.456.98 1.337.03 1.138 0 3.47 0 6.912 0 2.503 0 6.03-.057 7.025-.116 1.167-.202 1.394-.98 1.593-.548.17-.952.2-1.471.228-.202.17-.635 1.194-.404 1.28 2.192-.057 6.142.113 7.613.113 1.932 0 3.836-.227 5.364-.881 2.51-1.081 4.24-2.816 4.24-5.547 0-2.787-2.135-4.266-4.557-4.864-.087-.028-.087-.085 0-.113 1.701-.711 2.999-2.162 2.999-3.982 0-3.698-3.46-4.58-5.97-4.58-2.047 0-3.72.057-5.825.057-2.22 0-3.086-.085-3.374-.085zm-17.274 16.326c-.057-.426-.057-4.124-.057-6.77 0-2.56 0-6.94.057-7.508 0-.142.202-.398.289-.455.374-.17.98-.2 1.615-.2 2.134 0 3.98.37 5.421 1.252 2.538 1.536 3.778 4.153 3.778 7.367 0 3.356-1.067 5.46-2.596 6.826-1.5 1.337-3.056 1.621-4.614 1.621-1.21 0-2.566-.227-3.258-.767-.433-.285-.635-.939-.635-1.366zm-6.46-15.074c.808.085 1.385.199 1.817.284.866.17 1.298.427 1.384 1.422.058 1.195.03 4.92.03 6.826 0 2.674.028 5.035-.058 6.997-.087 1.053-.202 1.366-.808 1.593-.375.142-.577.17-1.326.256-.231.029-.606 1.024-.462 1.28h.03c2.797.028 6.17.085 8.132.085 3.69 0 6.286-.853 8.276-2.303 1.99-1.423 3.98-3.897 3.98-8.192 0-3.015-1.096-5.49-3.201-7.282-1.73-1.45-4.153-2.218-7.037-2.218-3.432 0-4.73.085-6.546.085-1.01 0-3.115-.085-3.663-.085-.144.17-.663 1.052-.547 1.252z"/></g><g><path fill="#442d22" d="M85.009 35.812c.115.228.057 1.053-.087 1.223-.461 0-1.615-.085-3.403-.085-1.442 0-2.422.085-3.259.085-.144-.199-.201-1.08 0-1.28.606-.057 1.125-.17 1.327-.256.433-.142.52-.427.52-1.564 0-2.105.057-4.523-.087-5.746-.087-.54-.289-1.28-.923-1.791-.461-.37-1.067-.655-1.99-.655-.952 0-2.019.399-2.682.967-.173.17-.346.455-.346 1.053 0 2.161 0 5.347.058 6.854.029.598.173.854.692.968.375.113.778.17 1.326.199.116.199.058 1.052-.144 1.28-.49 0-1.47-.086-3.374-.086-1.384 0-3.057.086-3.374.086-.173-.2-.173-1.11 0-1.28.49-.057.808-.142 1.211-.228l-.057.029c.519-.114.72-.37.75-1.081.086-1.792.086-5.063.057-7.196 0-.256.029-.57-.26-.797-.403-.256-.922-.512-1.7-.74h-.03c-.72-.227-.548-.881.145-1.023.951-.086 3.547-.683 4.47-1.138 0 0 .23.2.201.597-.028.427-.086 1.053-.086 1.366-.03.313.202.113.23.085 1.413-1.195 3.115-2.048 4.384-2.048 1.442 0 2.566.626 3.345 1.707.664.938.923 2.275.923 3.811 0 1.906 0 4.75.058 5.745 0 .114.144.399.23.455.635.285 1.154.399 1.875.484zm7.988-10.865c-1.528 0-2.48 1.166-2.48 2.986 0 1.85.836 3.982 3.2 3.982.405 0 1.154-.17 1.5-.568.548-.512.923-1.536.923-2.617 0-2.36-1.182-3.783-3.143-3.783zm-.202 12.572c-.577 0-.98.17-1.24.313-1.211.767-1.76 1.507-1.76 2.389 0 .825.318 1.479 1.01 2.048.836.71 1.99 1.052 3.46 1.052 2.942 0 4.24-1.564 4.24-3.1 0-1.081-.548-1.792-1.673-2.19-.807-.342-2.278-.512-4.037-.512zm.202 7.395c-1.76 0-3.028-.37-4.124-1.195-1.067-.796-1.528-1.99-1.528-2.816 0-.227.057-.853.577-1.422.316-.341 1.009-.995 2.653-2.104.057-.029.086-.057.086-.114s-.058-.114-.115-.142c-1.356-.512-1.76-1.337-1.875-1.793v-.056c-.029-.171-.086-.342.173-.512.202-.142.49-.313.807-.512.49-.285 1.01-.598 1.327-.854.058-.057.058-.113.058-.17 0-.057-.058-.114-.116-.142-2.018-.655-3.027-2.134-3.027-4.352 0-1.45.663-2.76 1.845-3.584.808-.626 2.826-1.394 4.153-1.394h.086c1.356.029 2.106.313 3.172.683.577.199 1.125.284 1.875.284 1.125 0 1.615-.341 2.019-.74.028.058.086.2.115.57.029.37-.087.91-.375 1.308-.23.313-.75.54-1.269.54h-.144c-.52-.056-.75-.113-.75-.113l-.115.057c-.029.057 0 .113.029.199l.029.057c.057.256.173 1.023.173 1.223 0 2.332-.952 3.356-1.961 4.124a6.693 6.693 0 0 1-3.374 1.28c-.03 0-.145 0-.404.028-.144 0-.346.029-.375.029h-.029c-.23.056-.807.34-.807.824 0 .427.26.94 1.5 1.024.259.029.518.029.807.057 1.643.114 3.691.256 4.643.57 1.326.483 2.162 1.649 2.162 3.043 0 2.104-1.528 4.067-4.066 5.29-1.24.54-2.48.825-3.835.825zm16.438-19.825c-.606 0-1.154.142-1.558.427-1.124.682-1.701 2.048-1.701 4.039 0 3.726 1.903 6.342 4.614 6.342.807 0 1.442-.227 1.99-.682.836-.683 1.269-2.048 1.269-3.954 0-3.697-1.875-6.172-4.614-6.172zm.519 12.174c-4.903 0-6.662-3.556-6.662-6.883 0-2.333.952-4.125 2.855-5.405 1.355-.825 2.97-1.28 4.412-1.28 3.749 0 6.374 2.646 6.374 6.457 0 2.588-1.039 4.636-3.029 5.888-.951.625-2.595 1.223-3.95 1.223zm-51.39-12.174c-.605 0-1.153.142-1.557.427-1.125.682-1.701 2.048-1.701 4.039 0 3.726 1.903 6.342 4.614 6.342.807 0 1.442-.227 1.99-.682.836-.683 1.268-2.048 1.268-3.954 0-3.697-1.845-6.172-4.614-6.172zm.52 12.174c-4.903 0-6.662-3.556-6.662-6.883 0-2.333.951-4.125 2.855-5.405 1.355-.825 2.97-1.28 4.412-1.28 3.749 0 6.373 2.646 6.373 6.457 0 2.588-1.038 4.636-3.028 5.888-.923.625-2.566 1.223-3.95 1.223zm-32.962-.285c-.058-.085-.116-.341-.087-.654 0-.227.058-.37.087-.426.605-.086.922-.171 1.268-.257.577-.142.808-.455.837-1.166.086-1.706.086-4.949.057-7.196v-.057c0-.256 0-.569-.317-.796a6.545 6.545 0 0 0-1.73-.74c-.26-.085-.433-.227-.404-.398 0-.17.173-.37.548-.426.952-.086 3.432-.683 4.412-1.11.058.057.144.228.144.455l-.028.313c-.03.313-.058.683-.058 1.053 0 .113.115.199.23.199a.414.414 0 0 0 .174-.057c1.845-1.422 3.518-1.934 4.383-1.934 1.413 0 2.509.654 3.345 2.02.058.085.116.113.202.113.058 0 .144-.028.173-.085 1.702-1.28 3.403-2.048 4.528-2.048 2.682 0 4.268 1.962 4.268 5.29 0 .939 0 2.162-.03 3.271 0 .995-.028 1.906-.028 2.56 0 .142.202.597.52.682.403.2.95.285 1.672.399h.029c.057.199-.058.938-.173 1.08-.173 0-.433 0-.721-.028a43.253 43.253 0 0 0-2.192-.057c-1.788 0-2.71.029-3.605.086-.057-.228-.086-.91 0-1.081.52-.086.779-.17 1.096-.256.577-.17.721-.427.75-1.167 0-.54.115-5.148-.058-6.257-.173-1.138-1.038-2.474-2.941-2.474-.721 0-1.846.284-2.942 1.109a.503.503 0 0 0-.115.284v.029c.115.597.115 1.28.115 2.332v1.849c0 1.28-.029 2.474 0 3.384 0 .626.375.768.692.882.173.029.289.057.433.086l.923.199c.057.113.057.483-.03.796-.028.17-.086.256-.114.285-.98-.029-1.99-.057-3.461-.057-.432 0-1.182.028-1.817.028-.52 0-1.01.029-1.297.029-.03-.057-.087-.256-.087-.57 0-.255.058-.454.115-.511.144-.029.26-.057.404-.057.346-.057.634-.114.923-.17.49-.143.663-.399.692-1.025.087-1.422.173-5.49-.029-6.513-.346-1.65-1.298-2.475-2.826-2.475-.894 0-2.019.427-2.942 1.11-.144.113-.26.398-.26.654v1.678c0 2.048 0 4.608.03 5.717.029.341.144.74.807.882.144.028.375.085.664.113l.519.086c.057.17.029.853-.087 1.08-.288 0-.634-.028-1.038-.028a47.918 47.918 0 0 0-2.25-.057c-1.009 0-1.73.029-2.307.057-.403-.057-.72-.057-1.066-.057z"/></g><g><g><path fill="#fff" d="M10.957 43.803l-1.183-.398s.145-5.945-2.018-6.371c-1.442-1.65.23-69.97 5.421-.228 0 0-1.788.882-2.105 2.39-.346 1.479-.115 4.607-.115 4.607z"/></g><g><path fill="#a6a385" d="M10.957 43.803l-1.183-.398s.145-5.945-2.018-6.371c-1.442-1.65.23-69.97 5.421-.228 0 0-1.788.882-2.105 2.39-.346 1.479-.115 4.607-.115 4.607z"/></g><g><path fill="#fff" d="M11.587 38.053s10.353-6.713 7.93-20.678C17.182 7.22 11.673 3.893 11.067 2.613 10.406 1.703 9.77.11 9.77.11l.433 28.244c0 .028-.894 8.646 1.384 9.699z"/></g><g><path fill="#499d4a" d="M11.587 38.053s10.353-6.713 7.93-20.678C17.182 7.22 11.673 3.893 11.067 2.613 10.406 1.703 9.77.11 9.77.11l.433 28.244c0 .028-.894 8.646 1.384 9.699z"/></g><g><path fill="#fff" d="M9.166 38.426S-.552 31.884.025 20.366C.572 8.845 7.436 3.185 8.762 2.161c.866-.91.895-1.252.952-2.162.606 1.28.49 19.142.577 21.247.26 8.106-.462 15.644-1.125 17.18z"/></g><g><path fill="#58aa50" d="M9.166 38.426S-.552 31.884.025 20.366C.572 8.845 7.436 3.185 8.762 2.161c.866-.91.895-1.252.952-2.162.606 1.28.49 19.142.577 21.247.26 8.106-.462 15.644-1.125 17.18z"/></g></g></g></g></g></svg>