<svg xmlns="http://www.w3.org/2000/svg" width="104" height="65" viewBox="0 0 104 65"><defs><linearGradient id="c80ya" x1="42.38" x2="33.44" y1="19.32" y2="37.9" gradientUnits="userSpaceOnUse"><stop offset="0" stop-color="#41873f"/><stop offset=".33" stop-color="#418b3d"/><stop offset=".64" stop-color="#419637"/><stop offset=".93" stop-color="#3fa92d"/><stop offset="1" stop-color="#3fae2a"/></linearGradient><linearGradient id="c80yb" x1="36.85" x2="61.92" y1="29.04" y2="10.16" gradientUnits="userSpaceOnUse"><stop offset=".14" stop-color="#41873f"/><stop offset=".4" stop-color="#54a044"/><stop offset=".71" stop-color="#66b848"/><stop offset=".91" stop-color="#6cc04a"/></linearGradient><linearGradient id="c80yc" x1="28.89" x2="47.4" y1="12.86" y2="12.86" gradientUnits="userSpaceOnUse"><stop offset=".09" stop-color="#6cc04a"/><stop offset=".29" stop-color="#66b848"/><stop offset=".6" stop-color="#54a044"/><stop offset=".86" stop-color="#41873f"/></linearGradient><linearGradient id="c80yd" x1="26.92" x2="49.79" y1="27.67" y2="27.67" gradientUnits="userSpaceOnUse"><stop offset=".09" stop-color="#6cc04a"/><stop offset=".29" stop-color="#66b848"/><stop offset=".6" stop-color="#54a044"/><stop offset=".86" stop-color="#41873f"/></linearGradient><linearGradient id="c80ye" x1="42.92" x2="49.74" y1="34.3" y2="34.3" gradientUnits="userSpaceOnUse"><stop offset=".09" stop-color="#6cc04a"/><stop offset=".29" stop-color="#66b848"/><stop offset=".6" stop-color="#54a044"/><stop offset=".86" stop-color="#41873f"/></linearGradient><linearGradient id="c80yf" x1="26.92" x2="49.78" y1="37.33" y2="37.33" gradientUnits="userSpaceOnUse"><stop offset=".09" stop-color="#6cc04a"/><stop offset=".29" stop-color="#66b848"/><stop offset=".6" stop-color="#54a044"/><stop offset=".86" stop-color="#41873f"/></linearGradient><linearGradient id="c80yg" x1="53.11" x2="39.01" y1="18.75" y2="48.09" gradientUnits="userSpaceOnUse"><stop offset="0" stop-color="#41873f"/><stop offset=".33" stop-color="#418b3d"/><stop offset=".64" stop-color="#419637"/><stop offset=".93" stop-color="#3fa92d"/><stop offset="1" stop-color="#3fae2a"/></linearGradient></defs><g><g><g><path fill="#539e43" d="M51.37 64.812a2.03 2.03 0 0 1-.987-.263l-3.122-1.89c-.47-.263-.235-.359-.094-.407.634-.215.751-.263 1.408-.646.07-.047.165-.024.235.024l2.395 1.46c.094.048.211.048.281 0l9.368-5.527c.093-.048.14-.143.14-.263V46.27c0-.12-.047-.215-.14-.263l-9.368-5.502c-.093-.048-.21-.048-.281 0l-9.367 5.502c-.094.048-.141.168-.141.263V57.3c0 .096.047.215.14.263l2.56 1.507c1.385.718 2.253-.12 2.253-.957V47.227c0-.143.118-.287.282-.287h1.197c.141 0 .282.12.282.287v10.886c0 1.89-1.01 2.99-2.77 2.99-.54 0-.963 0-2.16-.597l-2.465-1.436a2.027 2.027 0 0 1-.986-1.746v-11.03c0-.717.376-1.387.986-1.746l9.367-5.527a2.06 2.06 0 0 1 1.972 0l9.367 5.527c.61.359.986 1.029.986 1.746v11.03c0 .718-.376 1.387-.986 1.746l-9.367 5.527a2.364 2.364 0 0 1-.986.215zm2.887-7.584c-4.109 0-4.954-1.914-4.954-3.54 0-.144.118-.288.282-.288h1.22c.141 0 .259.096.259.24.188 1.267.728 1.89 3.216 1.89 1.972 0 2.817-.455 2.817-1.532 0-.622-.235-1.076-3.31-1.388-2.559-.263-4.155-.837-4.155-2.918 0-1.938 1.596-3.087 4.272-3.087 3.005 0 4.484 1.053 4.672 3.35a.39.39 0 0 1-.07.215c-.047.048-.118.096-.188.096h-1.22a.276.276 0 0 1-.259-.215c-.282-1.316-1.01-1.747-2.935-1.747-2.16 0-2.418.766-2.418 1.34 0 .694.306.909 3.217 1.292 2.887.383 4.249.933 4.249 2.99-.024 2.106-1.714 3.302-4.695 3.302z"/></g><g><path fill="#333" d="M22.302 21.678c0-.43-.234-.838-.61-1.053l-9.954-5.838a1.425 1.425 0 0 0-.54-.167h-.094c-.187 0-.375.072-.54.167L.61 20.625c-.375.215-.61.622-.61 1.053l.023 15.695c0 .215.118.43.306.526.187.12.422.12.587 0l5.916-3.445c.375-.216.61-.622.61-1.053v-7.345c0-.43.235-.837.61-1.053l2.512-1.483c.188-.12.4-.167.61-.167.212 0 .423.047.588.167l2.512 1.483c.375.216.61.622.61 1.053v7.345c0 .43.235.837.61 1.053l5.916 3.445c.188.12.423.12.61 0a.596.596 0 0 0 .306-.526z"/></g><g><path fill="#333" d="M76.086 3.445c.375.216.61.622.61 1.077v29.164c0 .43-.235.838-.61 1.053L66.132 40.6a1.19 1.19 0 0 1-1.198 0l-9.954-5.862a1.221 1.221 0 0 1-.61-1.053V21.987c0-.43.235-.837.61-1.053l9.954-5.861a1.19 1.19 0 0 1 1.198 0l2.488 1.46c.141.07.282.07.423 0a.462.462 0 0 0 .211-.384V.6c0-.216.117-.408.305-.527a.635.635 0 0 1 .587 0zm-6.855 22.37c0-.096-.047-.215-.141-.263l-3.404-2.01a.342.342 0 0 0-.306 0l-3.404 2.01c-.094.048-.14.143-.14.263v4.02c0 .095.046.215.14.263l3.404 2.01a.342.342 0 0 0 .306 0l3.404-2.01c.094-.048.14-.144.14-.264z"/></g><g><g><path fill="#333" d="M103.275 25.722a1.2 1.2 0 0 0 .587-1.053v-2.847c0-.43-.235-.838-.587-1.053l-9.883-5.838a1.19 1.19 0 0 0-1.198 0l-9.954 5.862c-.375.215-.61.622-.61 1.053v11.7c0 .43.235.836.61 1.052l9.884 5.742c.376.215.822.215 1.174 0l5.986-3.398a.596.596 0 0 0 .305-.526.596.596 0 0 0-.305-.526l-10-5.862a.626.626 0 0 1-.306-.526v-3.66c0-.216.117-.431.305-.527l3.123-1.818a.564.564 0 0 1 .61 0l3.122 1.818c.188.12.306.31.306.526v2.871c0 .216.117.43.305.527.188.12.422.12.61 0z"/></g><g><path fill="#539e43" d="M92.639 25.166a.21.21 0 0 1 .235 0l1.901 1.124c.07.048.118.12.118.216v2.249a.252.252 0 0 1-.118.215l-1.901 1.124a.21.21 0 0 1-.235 0l-1.902-1.124a.252.252 0 0 1-.117-.215v-2.25c0-.095.047-.167.117-.215z"/></g></g><g><g><g><path fill="#fff" d="M38.948 14.981a1.19 1.19 0 0 0-1.198 0l-9.883 5.814a1.2 1.2 0 0 0-.587 1.053v11.651c0 .431.235.838.587 1.053l9.883 5.814a1.19 1.19 0 0 0 1.198 0l9.883-5.814a1.2 1.2 0 0 0 .587-1.053V21.848c0-.43-.235-.837-.587-1.053z"/></g></g><g clip-path="url(#clip-15:1931)"><path fill="url(#c80ya)" d="M38.948 14.981a1.19 1.19 0 0 0-1.198 0l-9.883 5.814a1.2 1.2 0 0 0-.587 1.053v11.651c0 .431.235.838.587 1.053l9.883 5.814a1.19 1.19 0 0 0 1.198 0l9.883-5.814a1.2 1.2 0 0 0 .587-1.053V21.848c0-.43-.235-.837-.587-1.053z"/></g><g clip-path="url(#clip-15:1931)"><g/><g/><g><path fill="url(#c80yb)" d="M48.853 20.793l-9.93-5.813a1.611 1.611 0 0 0-.305-.12L27.49 34.287c.094.12.211.215.329.287l9.93 5.814c.282.167.61.215.916.12l10.447-19.475c-.07-.096-.165-.168-.259-.24z"/></g></g><g clip-path="url(#clip-15:1931)"><g><g/><g/><g><path fill="url(#c80yc)" d="M37.42 12.85l-.14.072h.188z"/></g><g><path fill="url(#c80yd)" d="M48.881 34.546c.282-.168.493-.455.587-.766L38.575 14.832c-.282-.048-.587-.024-.845.143l-9.86 5.79 10.635 19.762c.14-.024.305-.072.446-.143z"/></g><g><path fill="url(#c80ye)" d="M49.79 34.36l-.07-.12v.167z"/></g><g><path fill="url(#c80yf)" d="M48.873 34.55l-9.907 5.813c-.14.072-.282.12-.446.144l.188.359 10.987-6.484v-.143l-.282-.479a1.112 1.112 0 0 1-.54.79z"/></g><g><path fill="url(#c80yg)" d="M48.873 34.55l-9.907 5.813c-.14.072-.282.12-.446.144l.188.359 10.987-6.484v-.143l-.282-.479a1.112 1.112 0 0 1-.54.79z"/></g></g></g></g></g></g></svg>