<svg xmlns="http://www.w3.org/2000/svg" width="72" height="65" viewBox="0 0 72 65"><g><g><g><path fill="#fff" d="M.21 32.428c0 5.43 5.277 10.5 13.597 13.356-1.662 8.405-.298 15.178 4.256 17.818 4.682 2.713 11.656.835 18.276-4.98 6.453 5.58 12.974 7.776 17.525 5.129 4.677-2.72 6.1-9.954 4.392-18.62 8.665-2.88 13.512-7.202 13.512-12.703 0-5.304-5.286-9.893-13.494-12.732 1.838-9.025.28-15.634-4.462-18.383-4.573-2.65-11.17-.34-17.718 5.386C29.283.62 22.75-1.234 18.012 1.522c-4.569 2.657-5.872 9.554-4.205 18.114C5.767 22.452.21 27.145.21 32.428z"/></g><g><path fill="#53c1de" d="M56.541 22.515a42.3 42.3 0 0 0-2.046-.648c.116-.474.222-.942.316-1.402 1.549-7.553.536-13.639-2.921-15.642-3.315-1.921-8.737.082-14.213 4.87-.527.46-1.055.948-1.583 1.46a38.666 38.666 0 0 0-1.053-.978c-5.738-5.12-11.49-7.278-14.945-5.268-3.312 1.926-4.293 7.647-2.899 14.805.135.691.292 1.398.47 2.115-.814.233-1.6.48-2.352.744C8.587 24.928 4.29 28.62 4.29 32.454c0 3.957 4.613 7.927 11.62 10.333.554.19 1.128.37 1.719.54a41.946 41.946 0 0 0-.5 2.28c-1.328 7.034-.29 12.62 3.013 14.534 3.412 1.977 9.138-.055 14.714-4.953.44-.387.883-.798 1.326-1.228a41.756 41.756 0 0 0 1.718 1.575c5.401 4.67 10.736 6.556 14.036 4.636 3.408-1.983 4.516-7.983 3.078-15.283a36.443 36.443 0 0 0-.381-1.706c.402-.12.797-.243 1.182-.371C63.1 40.385 67.84 36.464 67.84 32.454c0-3.846-4.435-7.565-11.299-9.94z"/></g><g><path fill="#fff" d="M53.889 40.555c-.804-2.558-1.89-5.279-3.218-8.09 1.267-2.744 2.31-5.43 3.093-7.971.65.189 1.28.388 1.889.598 5.88 2.035 9.468 5.042 9.468 7.36 0 2.469-3.874 5.673-10.165 7.767-.347.116-.704.228-1.067.336zm-1.543 4.861c.636 3.228.727 6.147.306 8.428-.379 2.05-1.14 3.417-2.081 3.965-2.003 1.165-6.286-.35-10.905-4.344a39.056 39.056 0 0 1-1.598-1.464c1.79-1.968 3.58-4.255 5.327-6.796 3.072-.274 5.975-.722 8.607-1.333.13.525.245 1.04.344 1.544zM25.951 57.607c-1.957.695-3.515.715-4.457.169-2.005-1.162-2.838-5.646-1.701-11.662.13-.69.285-1.397.463-2.12 2.604.578 5.485.995 8.564 1.245 1.759 2.487 3.6 4.772 5.456 6.773-.406.393-.81.768-1.211 1.12-2.466 2.166-4.936 3.703-7.114 4.475zm-9.167-17.403c-3.099-1.064-5.658-2.447-7.412-3.956C7.796 34.89 7 33.544 7 32.452c0-2.325 3.45-5.291 9.204-7.307a39.004 39.004 0 0 1 2.187-.692c.796 2.6 1.839 5.317 3.098 8.065-1.275 2.79-2.333 5.55-3.136 8.18-.541-.156-1.065-.32-1.569-.494zm3.073-21.018c-1.194-6.133-.401-10.76 1.595-11.92 2.126-1.237 6.827.526 11.782 4.947.317.283.635.579.954.885-1.847 1.992-3.671 4.26-5.414 6.731-2.989.279-5.85.726-8.48 1.325a40.125 40.125 0 0 1-.437-1.968zm27.413 6.802a86.693 86.693 0 0 0-1.933-3.193c2.028.257 3.97.599 5.795 1.017a58.466 58.466 0 0 1-2.034 5.5 95.253 95.253 0 0 0-1.828-3.324zm-11.18-10.94a58.235 58.235 0 0 1 3.74 4.536 79.549 79.549 0 0 0-7.51-.002 60.109 60.109 0 0 1 3.77-4.535zM24.84 26.006a80.631 80.631 0 0 0-1.794 3.302 60.421 60.421 0 0 1-2.02-5.525 60.933 60.933 0 0 1 5.762-.994 80.276 80.276 0 0 0-1.948 3.217zm2.006 16.302a57.558 57.558 0 0 1-5.857-.946 61.45 61.45 0 0 1 2.06-5.638 80.674 80.674 0 0 0 3.797 6.584zm9.32 7.74a61.184 61.184 0 0 1-3.824-4.598 94.57 94.57 0 0 0 3.718.072c1.296 0 2.576-.029 3.837-.085a57.96 57.96 0 0 1-3.731 4.61zm12.958-14.422a58.074 58.074 0 0 1 2.134 5.617 57.429 57.429 0 0 1-5.928 1.016c.66-1.05 1.31-2.135 1.95-3.25a86.775 86.775 0 0 0 1.844-3.383zm-4.195 2.02a89.484 89.484 0 0 1-3.049 4.943 81.372 81.372 0 0 1-5.82.205c-1.977 0-3.901-.061-5.753-.182a77.457 77.457 0 0 1-3.107-4.95 76.828 76.828 0 0 1-2.711-5.146 77.474 77.474 0 0 1 2.703-5.147 76.696 76.696 0 0 1 3.082-4.93 76.536 76.536 0 0 1 5.786-.218c1.968 0 3.908.076 5.798.22a82.18 82.18 0 0 1 3.062 4.913 89.58 89.58 0 0 1 2.74 5.124 82.333 82.333 0 0 1-2.731 5.169zm5.6-30.462c2.128 1.233 2.956 6.206 1.619 12.728-.085.416-.181.84-.286 1.27-2.636-.612-5.5-1.067-8.497-1.35-1.746-2.498-3.556-4.77-5.372-6.737a39.97 39.97 0 0 1 1.462-1.346c4.691-4.103 9.076-5.723 11.074-4.565z"/></g><g><path fill="#53c1de" d="M36.065 26.75c3.134 0 5.675 2.553 5.675 5.702 0 3.15-2.541 5.703-5.675 5.703S30.39 35.6 30.39 32.452c0-3.15 2.54-5.702 5.675-5.702z"/></g></g></g></svg>